<svg width="27" height="27" viewBox="0 0 27 27" fill="none" xmlns="http://www.w3.org/2000/svg">
<path d="M8.1 5.96124H18.9C18.9 5.96124 20.9178 7.76784 22.5 8.36124C23.6184 8.78124 25.5 8.96124 25.5 8.96124C25.5 8.96124 24.4104 9.35064 23.7 9.56124C22.7736 9.83604 21.3 10.1612 21.3 10.1612H5.7C5.7 10.1612 4.2264 9.83604 3.3 9.56124C2.5896 9.35064 1.5 8.96124 1.5 8.96124C1.5 8.96124 3.3816 8.78124 4.5 8.36124C6.0822 7.76784 8.1 5.96124 8.1 5.96124Z" stroke="white" stroke-width="2" stroke-linejoin="round"/>
<path d="M9.90039 5.96126L13.5004 1.16125L17.1004 5.96126H9.90039Z" stroke="white" stroke-width="2" stroke-linecap="round" stroke-linejoin="round"/>
<path d="M5.7002 10.1613V21.5613M21.3002 10.1613V21.5613" stroke="white" stroke-width="2" stroke-linecap="round"/>
<path d="M2.7002 21.5612H24.3002V25.1612H2.7002V21.5612Z" stroke="white" stroke-width="2" stroke-linejoin="round"/>
</svg>
