<svg width="27" height="27" viewBox="0 0 27 27" fill="none" xmlns="http://www.w3.org/2000/svg">
<path d="M18.8324 2.91108H22.8321C23.5394 2.91108 24.2176 3.19201 24.7177 3.69208C25.2177 4.19215 25.4987 4.87039 25.4987 5.57759V6.91085M18.8324 24.2432H22.8321C23.5394 24.2432 24.2176 23.9623 24.7177 23.4622C25.2177 22.9621 25.4987 22.2839 25.4987 21.5767V20.2434M18.8337 13.5772H25.5M25.5 13.5772L22.8335 10.9106M25.5 13.5772L22.8335 16.2437M3.39989 23.4806L11.3995 25.8805C11.7977 26 12.2183 26.0248 12.6278 25.9528C13.0373 25.8808 13.4243 25.714 13.7579 25.4658C14.0914 25.2176 14.3623 24.8948 14.5489 24.5233C14.7355 24.1518 14.8327 23.7417 14.8326 23.3259V3.82836C14.8327 3.41258 14.7355 3.00255 14.5489 2.631C14.3623 2.25945 14.0914 1.93669 13.7579 1.68849C13.4243 1.44029 13.0373 1.27354 12.6278 1.20154C12.2183 1.12954 11.7977 1.1543 11.3995 1.27383L3.39989 3.6737C2.85062 3.83858 2.36913 4.17615 2.02689 4.63632C1.68464 5.09649 1.49987 5.65474 1.5 6.22822V20.9261C1.49987 21.4996 1.68464 22.0578 2.02689 22.518C2.36913 22.9782 2.85062 23.3157 3.39989 23.4806Z" stroke="white" stroke-width="2" stroke-linecap="round" stroke-linejoin="round"/>
</svg>
