<svg width="22" height="15" viewBox="0 0 22 15" fill="none" xmlns="http://www.w3.org/2000/svg">
<path fill-rule="evenodd" clip-rule="evenodd" d="M11.0044 13.59C15.0384 13.59 18.6904 11.34 20.6524 7.79001C18.6904 4.24001 15.0384 1.99001 11.0044 1.99001C6.97043 1.99001 3.31843 4.24001 1.35643 7.79001C3.31843 11.34 6.97043 13.59 11.0044 13.59ZM11.0044 0.790009C15.8124 0.790009 19.9764 3.63801 22.0044 7.79001C19.9764 11.942 15.8124 14.79 11.0044 14.79C6.19642 14.79 2.03243 11.942 0.00442505 7.79001C2.03243 3.63801 6.19642 0.790009 11.0044 0.790009ZM11.0044 10.59C11.747 10.59 12.4592 10.295 12.9843 9.76991C13.5094 9.24481 13.8044 8.53261 13.8044 7.79001C13.8044 7.0474 13.5094 6.33521 12.9843 5.81011C12.4592 5.28501 11.747 4.99001 11.0044 4.99001C10.2618 4.99001 9.54963 5.28501 9.02453 5.81011C8.49942 6.33521 8.20442 7.0474 8.20442 7.79001C8.20442 8.53261 8.49942 9.24481 9.02453 9.76991C9.54963 10.295 10.2618 10.59 11.0044 10.59ZM11.0044 11.79C9.94356 11.79 8.92614 11.3686 8.176 10.6184C7.42585 9.86829 7.00443 8.85087 7.00443 7.79001C7.00443 6.72914 7.42585 5.71173 8.176 4.96158C8.92614 4.21144 9.94356 3.79001 11.0044 3.79001C12.0653 3.79001 13.0827 4.21144 13.8329 4.96158C14.583 5.71173 15.0044 6.72914 15.0044 7.79001C15.0044 8.85087 14.583 9.86829 13.8329 10.6184C13.0827 11.3686 12.0653 11.79 11.0044 11.79Z" fill="white"/>
</svg>
