<svg width="25" height="28" viewBox="0 0 25 28" fill="none" xmlns="http://www.w3.org/2000/svg">
<path d="M2.21429 25.447H8.54343V16.7436C8.54343 16.3516 8.67657 16.023 8.94286 15.7578C9.208 15.4916 9.53657 15.3584 9.92857 15.3584H15.0714C15.4634 15.3584 15.7926 15.4916 16.0589 15.7578C16.324 16.023 16.4566 16.3516 16.4566 16.7436V25.447H22.7857V10.5464C22.7857 10.3704 22.7474 10.2104 22.6709 10.0664C22.5943 9.92242 22.4897 9.7967 22.3571 9.68927L13.1274 2.7327C12.9514 2.57956 12.7423 2.50299 12.5 2.50299C12.2577 2.50299 12.0491 2.57956 11.8743 2.7327L2.64286 9.68927C2.51143 9.79899 2.40686 9.9247 2.32914 10.0664C2.25143 10.2081 2.21314 10.3681 2.21429 10.5464V25.447ZM0.5 25.447V10.5464C0.5 10.1076 0.598286 9.69213 0.794857 9.30013C0.991428 8.90813 1.26229 8.58527 1.60743 8.33156L10.8389 1.3407C11.3223 0.971559 11.8743 0.786987 12.4949 0.786987C13.1154 0.786987 13.6709 0.971559 14.1611 1.3407L23.3926 8.32985C23.7389 8.58356 24.0097 8.90699 24.2051 9.30013C24.4017 9.69213 24.5 10.1076 24.5 10.5464V25.447C24.5 25.9064 24.3291 26.307 23.9874 26.6487C23.6457 26.9904 23.2451 27.1613 22.7857 27.1613H16.1274C15.7343 27.1613 15.4051 27.0287 15.14 26.7636C14.8749 26.4973 14.7423 26.1681 14.7423 25.7761V17.0744H10.2577V25.7761C10.2577 26.1693 10.1251 26.4984 9.86 26.7636C9.59486 27.0287 9.26629 27.1613 8.87429 27.1613H2.21429C1.75486 27.1613 1.35429 26.9904 1.01257 26.6487C0.670857 26.307 0.5 25.9064 0.5 25.447Z" fill="white"/>
</svg>
