<svg width="27" height="27" viewBox="0 0 27 27" fill="none" xmlns="http://www.w3.org/2000/svg">
<path d="M26.5 18.5826C23.9811 19.722 21.1749 20.0667 18.4551 19.5709C15.7354 19.0752 13.2313 17.7624 11.2764 15.8075C9.32159 13.8527 8.00883 11.3486 7.51305 8.62886C7.01728 5.90911 7.36202 3.10286 8.50135 0.583984C6.49603 1.49023 4.7405 2.86943 3.38536 4.60326C2.03023 6.33709 1.11594 8.3738 0.720941 10.5386C0.325944 12.7035 0.462029 14.9318 1.11752 17.0325C1.77301 19.1332 2.92834 21.0435 4.48439 22.5996C6.04044 24.1556 7.95075 25.311 10.0514 25.9665C12.1521 26.622 14.3805 26.758 16.5453 26.363C18.7102 25.968 20.7469 25.0538 22.4807 23.6986C24.2146 22.3435 25.5938 20.588 26.5 18.5826Z" fill="white"/>
<path d="M12.4531 0.583984L12.9022 1.96595H14.3552L13.1797 2.82005L13.6287 4.20202L12.4531 3.34792L11.2776 4.20202L11.7266 2.82005L10.551 1.96595H12.0041L12.4531 0.583984Z" fill="white"/>
<path d="M10.4531 4.58398L10.6776 5.27497H11.4042L10.8164 5.70202L11.0409 6.393L10.4531 5.96595L9.86534 6.393L10.0899 5.70202L9.50207 5.27497H10.2286L10.4531 4.58398Z" fill="white"/>
<path d="M12.9531 6.58398L13.2899 7.62046H14.3797L13.498 8.26104L13.8348 9.29751L12.9531 8.65693L12.0714 9.29751L12.4082 8.26104L11.5265 7.62046H12.6164L12.9531 6.58398Z" fill="white"/>
</svg>
