<svg width="25" height="24" viewBox="0 0 25 24" fill="none" xmlns="http://www.w3.org/2000/svg">
<path d="M5.84731 18.8047L7.82181 20.7858C7.92162 20.8856 8.03927 20.94 8.17473 20.9489C8.3093 20.9569 8.43497 20.9026 8.55172 20.7858C8.66846 20.6691 8.72639 20.5461 8.7255 20.4169C8.72461 20.2876 8.66668 20.1646 8.55172 20.0479L6.57722 18.0747L8.55974 16.0922C8.65955 15.9924 8.71347 15.8748 8.72149 15.7393C8.72951 15.6038 8.6756 15.4782 8.55974 15.3623C8.44388 15.2465 8.32223 15.1881 8.19478 15.1872C8.06734 15.1863 7.94569 15.2442 7.82983 15.361L5.84731 17.3448L3.8648 15.3637C3.76587 15.2638 3.64868 15.2099 3.51321 15.2019C3.37775 15.193 3.25164 15.2465 3.13489 15.3623C3.01814 15.4782 2.96021 15.6003 2.9611 15.7286C2.96199 15.8569 3.01992 15.9786 3.13489 16.0936L5.1174 18.0761L3.13489 20.0573C3.03596 20.1571 2.98204 20.2747 2.97313 20.4102C2.96422 20.5456 3.01814 20.6713 3.13489 20.7872C3.25164 20.903 3.37329 20.9614 3.49984 20.9623C3.6264 20.9632 3.74805 20.9053 3.8648 20.7885L5.84731 18.8047ZM5.84731 23.4221C4.35809 23.4221 3.09478 22.9029 2.0574 21.8647C1.01913 20.8264 0.5 19.5631 0.5 18.0747C0.5 16.5846 1.01913 15.3209 2.0574 14.2835C3.09478 13.2461 4.35809 12.7274 5.84731 12.7274C7.33654 12.7274 8.60029 13.2461 9.63856 14.2835C10.6768 15.3209 11.1955 16.5846 11.1946 18.0747C11.1946 19.5631 10.6759 20.8264 9.63856 21.8647C8.5994 22.9029 7.33565 23.4221 5.84731 23.4221ZM15.4217 14.4025C15.181 14.6083 14.8936 14.8058 14.5594 14.9947C14.2252 15.1836 13.9128 15.3293 13.6223 15.4318C13.5261 15.2447 13.4218 15.0606 13.3095 14.8797C13.1972 14.6988 13.0818 14.5348 12.9632 14.3878C14.0844 13.9217 15.0126 13.1788 15.7479 12.1593C16.4831 11.1397 16.8503 9.94059 16.8494 8.56187C16.8494 6.80528 16.2345 5.31205 15.0046 4.08216C13.7747 2.85228 12.2819 2.23734 10.5262 2.23734C8.77051 2.23734 7.27727 2.85273 6.0465 4.0835C4.81573 5.31427 4.20079 6.80707 4.20168 8.56187C4.20168 8.83281 4.2244 9.10685 4.26986 9.38402C4.31531 9.6603 4.36655 9.92499 4.42359 10.1781C4.22752 10.1888 4.01007 10.2311 3.77122 10.3051C3.53237 10.3791 3.31803 10.4535 3.1282 10.5283C3.04889 10.2494 2.98516 9.94014 2.93704 9.60059C2.88891 9.26104 2.86485 8.9148 2.86485 8.56187C2.86485 6.42473 3.60768 4.61378 5.09334 3.129C6.57811 1.64334 8.38907 0.900513 10.5262 0.900513C12.6634 0.900513 14.4748 1.64334 15.9604 3.129C17.4461 4.61467 18.188 6.42562 18.1862 8.56187C18.1862 9.51993 18.0187 10.4236 17.6836 11.273C17.3485 12.1223 16.922 12.8607 16.4042 13.4881L24.2942 21.3847C24.419 21.5095 24.4872 21.6619 24.4987 21.8419C24.5103 22.0202 24.4421 22.1833 24.2942 22.3312C24.1516 22.4738 23.9939 22.5451 23.821 22.5451C23.6481 22.5451 23.4903 22.4738 23.3477 22.3312L15.4217 14.4025Z" fill="white"/>
</svg>
